<svg id="SvgjsSvg1001" width="256" height="256" xmlns="http://www.w3.org/2000/svg" version="1.1"
    xmlns:xlink="http://www.w3.org/1999/xlink" xmlns:svgjs="http://svgjs.com/svgjs">
    <defs id="SvgjsDefs1002"></defs>
    <g id="SvgjsG1008">
        <svg xmlns="http://www.w3.org/2000/svg" enable-background="new 0 0 347.735 219.591"
            viewBox="0 0 347.735 219.591" width="256" height="256">
            <path
                d="M125.308 126.737l20.606 27.318-10.803 50.414c-1.446 6.75 2.854 13.395 9.604 14.842.883.189 1.764.28 2.632.28 5.768 0 10.952-4.016 12.21-9.883l12-56c.76-3.547-.059-7.25-2.243-10.146l-19.563-25.934-18.695 7.932C129.221 126.338 127.287 126.733 125.308 126.737zM11.93 106.057l47.083-26.54L75.31 62.88c1.952-1.994 4.565-3.093 7.357-3.093 2.711 0 5.271 1.045 7.208 2.942 4.057 3.974 4.124 10.508.149 14.565L76.76 90.836c10.285 13.288 19.871 21.257 36.78 30.78 3.599 1.68 6.782 2.481 9.62 2.633.697.12 1.405.189 2.12.189 1.628 0 3.283-.32 4.877-.997l57.647-24.46 61.538-15.262c6.7-1.662 10.785-8.44 9.124-15.141-1.663-6.701-8.449-10.787-15.142-9.124l-62.5 15.5c-.64.159-1.267.368-1.874.625l-42.987 18.24c-14.969-8.344-28.09-23.745-37.651-34.034-5.688-7.309-15.75-11.234-22.637-7.945-.317.128-.631.27-.937.443L4.073 92.119c-3.849 2.17-5.21 7.049-3.04 10.897 1.47 2.607 4.183 4.073 6.977 4.073C9.339 107.089 10.688 106.757 11.93 106.057z"
                fill="#000000" class="color000 svgShape"></path>
            <path
                d="M88.382,75.686c3.092-3.156,3.04-8.221-0.116-11.313c-3.158-3.093-8.223-3.04-11.313,0.117l-48,49
		c-3.092,3.156-3.04,8.221,0.116,11.313c1.558,1.525,3.578,2.285,5.598,2.285c2.075,0,4.149-0.802,5.716-2.402L88.382,75.686z"
                fill="#000000" class="color000 svgShape"></path>
            <circle cx="88.543" cy="25.667" r="22.5" transform="rotate(-53.978 88.537 25.667)"
                fill="#000000" class="color000 svgShape"></circle>
            <path
                d="M257.257 26.181c1.121-12.376-8.004-23.317-20.379-24.437C224.5.623 213.561 9.746 212.44 22.123c-.336 3.71.255 7.289 1.571 10.515l42.741-3.354C256.988 28.275 257.161 27.241 257.257 26.181zM340.801 46.988c-16.753-14.816-28.367-21.12-48.811-27.062-13.211-3.756-23.255 1.728-27.543 8.753l17.166-1.347c.271-.021.54-.031.806-.031 5.34 0 9.851 4.17 10.269 9.494.444 5.662-3.801 10.63-9.463 11.074l-13.109 1.029c2.158 1.688 4.639 3.065 7.28 3.962 8.423 3.71 19.422 8.15 29.605 13.975l-34.952 12.2c-1.087.379-2.114.909-3.053 1.575l-49.335 35.012c-5.518 3.916-6.815 11.563-2.9 17.08 2.389 3.365 6.165 5.161 10.001 5.161 2.451 0 4.928-.734 7.079-2.261l47.92-34.008 51.362-17.929c.57-.199 1.107-.448 1.628-.72 2.62-.709 4.661-3.194 7.194-6.736C347.278 68.757 352.226 58.755 340.801 46.988z"
                fill="#000000" class="color000 svgShape"></path>
            <path
                d="M283.045,45.577c4.404-0.346,7.695-4.196,7.35-8.602c-0.346-4.404-4.198-7.689-8.602-7.35l-91.333,7.167
		c-4.404,0.346-7.695,4.196-7.35,8.602c0.329,4.192,3.832,7.374,7.967,7.374c0.21,0,0.422-0.008,0.635-0.024L283.045,45.577z"
                fill="#000000" class="color000 svgShape"></path>
            <rect width="43.572" height=".945" x="175.59" y="106.381"
                transform="rotate(-14.396 197.346 106.823)" fill="#000000" class="color000 svgShape"></rect>
            <rect width="42.829" height=".945" x="195.304" y="97.074"
                transform="rotate(-14.396 216.686 97.518)" fill="#000000" class="color000 svgShape"></rect>
            <rect width="45.952" height=".945" x="184.251" y="101.681"
                transform="rotate(-14.396 207.195 102.124)" fill="#000000" class="color000 svgShape"></rect>
            <rect width="31.037" height=".945" x="181.16" y="64.957"
                transform="rotate(-14.046 196.675 65.43)" fill="#000000" class="color000 svgShape"></rect>
            <rect width="39.607" height=".945" x="162.428" y="64.237"
                transform="rotate(-14.04 182.265 64.718)" fill="#000000" class="color000 svgShape"></rect>
            <rect width="58.562" height=".945" x="172.938" y="61.404"
                transform="rotate(-14.046 202.215 61.877)" fill="#000000" class="color000 svgShape"></rect>
            <polygon
                points="199.602 28.813 201.198 29.765 204.742 28.856 203.949 25.871 200.42 25.728"
                fill="#000000" class="color000 svgShape"></polygon>
            <polygon
                points="177.038 32.154 178.217 28.655 175.771 28.381 173.937 29.899 174.493 31.169"
                fill="#000000" class="color000 svgShape"></polygon>
            <polygon
                points="142.734 47.307 141.204 45.379 138.834 45.147 138.325 46.437 139.421 48.936"
                fill="#000000" class="color000 svgShape"></polygon>
            <polygon
                points="193.307 25.179 191.777 23.251 189.407 23.019 188.898 24.309 189.994 26.809"
                fill="#000000" class="color000 svgShape"></polygon>
            <polygon
                points="166.057 15.179 164.527 13.251 162.157 13.019 161.648 14.309 162.744 16.809"
                fill="#000000" class="color000 svgShape"></polygon>
            <polygon points="184.742 7.892 183.213 5.964 180.843 5.732 180.334 7.022 181.429 9.522"
                fill="#000000" class="color000 svgShape"></polygon>
            <polygon
                points="153.657 24.352 151.994 22.648 150.774 23.308 150.002 25.925 153.586 26.811"
                fill="#000000" class="color000 svgShape"></polygon>
            <polygon points="144.857 2.635 144.65 .263 143.288 0 141.032 1.536 143.243 4.493"
                fill="#000000" class="color000 svgShape"></polygon>
            <polygon
                points="200.319 20.068 201.446 17.051 198.532 14.8 195.974 16.929 196.758 18.702"
                fill="#000000" class="color000 svgShape"></polygon>
        </svg>
    </g>
</svg>